<svg width="2667" height="2667" viewBox="0 0 2667 2667" fill="none" xmlns="http://www.w3.org/2000/svg">
<path d="M1652.22 575.116C1665.79 572.57 1672.58 571.297 1679.41 571.663C1686.24 572.029 1692.85 574.02 1706.08 578.001L1953.86 652.577C1992.95 664.343 2012.49 670.225 2023.75 685.365C2035 700.505 2035 720.917 2035 761.74L2035 1138L2035 1827C2035 1880.74 2035 1907.61 2018.31 1924.3C2001.61 1941 1974.74 1941 1921 1941L697.5 1941C643.76 1941 616.89 1941 600.195 1924.3C583.5 1907.61 583.5 1880.74 583.5 1827L583.497 870.109C583.497 824.857 583.497 802.231 596.635 786.4C609.773 770.57 632.012 766.4 676.489 758.061L1652.22 575.116Z" fill="#FFF9EF"/>
<g opacity="0.15">
<path fill-rule="evenodd" clip-rule="evenodd" d="M1969.31 1375.54L1969.22 1375.6V1439.63L1969.09 1439.71L1917.72 1471.92V1536.23L1969.22 1568.53V1633.45L1969.09 1633.52L1943.46 1649.6L1969.22 1665.75V1730.67L1969.1 1730.75L1917.46 1763.13L1917.33 1763.05L1891.44 1746.81L1866.65 1762.35V1827.5L1866.31 1827.72L1814.45 1860.23L1814.11 1860.01L1814.04 1859.97L1762.96 1892L1762.83 1891.92L1711.42 1859.69L1659.94 1891.98L1659.81 1891.89L1608.43 1859.68L1556.93 1891.98L1556.8 1891.89L1505.17 1859.52V1762.96L1479.41 1746.81L1454.61 1762.36V1827.5L1454.27 1827.72L1402.42 1860.23L1402.08 1860.01L1402 1859.97L1350.92 1892L1350.79 1891.92L1299.15 1859.54V1859.53L1247.65 1827.23V1763.17L1247.22 1762.91V1729.89L1042.15 1858.5V1858.85L1042.02 1858.93L990.386 1891.31L990.257 1891.23L990.104 1891.13L989.33 1891.62L989.073 1891.13L989.584 1890.81L938.885 1859.01L887.377 1891.31L887.248 1891.23L835.615 1858.85L835.615 1762.61L784.369 1794.75L784.24 1794.67L758.773 1778.7L732.864 1794.95L732.521 1794.73L680.673 1762.21V1762.2L629.169 1729.9V1664.44L629.513 1664.23L629.599 1664.17V1600.12L629.727 1600.04L681.361 1567.66L681.489 1567.73L732.867 1599.96L784.369 1567.66L784.498 1567.73L835.876 1599.96L887.378 1567.66L887.381 1567.66L938.881 1535.36L939.01 1535.44L989.969 1567.4L990.129 1567.3V1535.19L990.257 1535.11L1041.12 1503.21L990.128 1471.23V1406.31L1041.89 1373.85L1093.65 1406.31V1470.57L1144.9 1438.44L1145.03 1438.52L1196.15 1470.57V1438.28L1247.91 1405.82L1248.04 1405.9L1299.67 1438.28V1503.2L1299.54 1503.28L1251.31 1533.53C1251.56 1534.08 1251.69 1534.69 1251.69 1535.34C1251.69 1536.03 1251.54 1536.68 1251.27 1537.25L1274.39 1551.74L1299.41 1536.05L1299.54 1536.13L1350.66 1568.19V1503.91L1402.42 1471.45L1402.55 1471.53L1427.89 1487.42L1453.67 1471.26V1439.3L1453.8 1439.22L1505.43 1406.84L1505.55 1406.92L1556.92 1439.13L1582.15 1423.32L1556.67 1407.34V1342.42L1556.8 1342.34L1608.18 1310.12V1277.82L1608.31 1277.74L1659.68 1245.52V1180.93L1711.19 1148.63V1148.61L1711.32 1148.53L1762.96 1116.15L1814.52 1148.49L1969.98 1051L1970.24 1051.48L1814.72 1149.02V1213.28L1917.01 1277.42L1917.46 1277.14L1917.81 1277.35L1969.64 1309.87V1310.43L2125 1407.86L2124.74 1408.34L1969.64 1311.07V1375.33L1969.31 1375.54ZM1660.2 1245.2L1711.19 1213.22V1149.27L1660.2 1181.25V1245.2ZM1660.51 1245.72L1711.45 1277.66L1762.44 1245.69L1711.5 1213.74L1660.51 1245.72ZM1763.21 1245.84V1309.57L1763.29 1309.62L1763.37 1309.67L1810.99 1279.81C1810.74 1279.25 1810.6 1278.62 1810.6 1277.96C1810.6 1275.65 1812.32 1273.77 1814.45 1273.77C1816.58 1273.77 1818.31 1275.65 1818.31 1277.96C1818.31 1278.62 1818.17 1279.25 1817.91 1279.81L1865.56 1309.68L1865.61 1309.65L1916.49 1277.74L1814.41 1213.73L1763.21 1245.84ZM1811.25 1280.29C1811.94 1281.41 1813.12 1282.15 1814.45 1282.15C1815.79 1282.15 1816.96 1281.41 1817.66 1280.29L1865.27 1310.15V1374.97L1815.14 1406.4V1342.14L1763.88 1309.99L1811.25 1280.29ZM1815.14 1407.05L1865.5 1375.47L1865.69 1375.59V1439.31L1814.88 1471.17L1814.8 1471.13L1814.72 1471.08V1407.86L1814.8 1407.81L1815.14 1407.6V1407.05ZM1866.21 1439.3V1375.92L1917.12 1407.84L1917.46 1408.06L1968.7 1375.92V1439.31L1917.46 1471.44L1866.21 1439.3ZM1917.46 1406.33L1968.03 1374.61L1917.45 1342.9L1866.88 1374.61L1917.46 1406.33ZM1917.59 1342.33L1968.28 1374.12V1310.73L1917.46 1278.86L1866.64 1310.73V1374.11L1917.45 1342.25L1917.59 1342.33ZM1244.39 1533.46C1244.13 1534.03 1243.98 1534.67 1243.98 1535.34C1243.98 1537.65 1245.71 1539.52 1247.84 1539.52C1249.19 1539.52 1250.39 1538.76 1251.07 1537.61L1274 1551.99L1247.78 1568.43L1247.65 1568.51V1599.76L1221.32 1616.28L1196.53 1600.73L1196.4 1600.65L1171.64 1616.18L1145.24 1599.62L1144.9 1599.4L1093.05 1631.92L1092.71 1632.13V1632.68L1042.58 1664.12V1632.14L1093.52 1600.19L1093.65 1600.11V1600.1L1144.64 1568.12L1144.77 1568.2L1144.9 1568.28L1196.53 1535.89L1196.66 1535.82V1503.53L1244.39 1533.46ZM1244.65 1532.98L1196.66 1502.88V1438.6L1247.91 1406.47L1299.15 1438.6V1502.88L1251.06 1533.04C1250.37 1531.9 1249.18 1531.15 1247.84 1531.15C1246.52 1531.15 1245.35 1531.88 1244.65 1532.98ZM990.643 1470.91L1041.63 1502.88V1502.88L1093.14 1470.58V1406.63L1041.89 1374.49L990.643 1406.63V1470.91ZM1093.14 1534.86L1042.66 1503.21L1093.14 1471.55V1534.86ZM1093.65 1535.5L1093.65 1471.23L1093.65 1471.23L1144.64 1503.2V1567.47L1093.65 1535.5ZM1350.66 1599.57L1350.66 1568.84L1299.41 1536.7L1274.9 1552.07L1350.66 1599.57ZM1274.51 1552.31L1350.66 1600.07L1350.66 1633.11L1299.84 1664.98L1299.76 1664.93L1299.67 1664.87V1632.06L1248.16 1599.76V1568.84L1274.51 1552.31ZM1247.65 1600.41L1221.84 1616.6L1247.65 1632.79V1600.41ZM1247.65 1633.43L1221.32 1616.92L1197.08 1632.13L1197.09 1632.13V1696.93L1222.99 1713.17L1247.22 1697.97V1697.44L1247.56 1697.22L1247.65 1697.17V1633.43ZM1248.17 1633.75L1298.47 1665.3L1248.17 1696.85V1633.75ZM1298.98 1664.98L1248.17 1633.11L1248.16 1600.41L1299.15 1632.39V1664.87L1298.98 1664.98ZM1300.35 1665.3L1350.66 1696.85V1633.76L1300.35 1665.3ZM1917.21 1471.94L1865.95 1439.79L1815.39 1471.5L1866.65 1503.64V1567.91L1917.21 1536.2V1471.94ZM1866.21 1569.38L1866.31 1569.32L1866.65 1569.1V1568.58L1917.45 1536.71L1968.7 1568.85V1633.13L1942.95 1649.27L1917.59 1633.37L1917.46 1633.29L1891.98 1649.27L1866.22 1633.11V1633.1L1866.21 1633.09V1569.38ZM1865.69 1569.7L1815.41 1601.23L1865.69 1632.77V1569.7ZM1866.22 1633.77V1665.42L1891.45 1649.6L1866.22 1633.77ZM1891.96 1649.92L1866.22 1666.07V1698.02L1866.22 1698.02V1730.34L1891.44 1746.16L1917.21 1730V1665.75L1891.96 1649.92ZM1917.72 1665.74V1730.33L1917.59 1730.41L1891.95 1746.49L1917.46 1762.49L1968.71 1730.34V1666.07L1942.95 1649.92L1917.72 1665.74ZM1942.44 1649.6L1917.46 1633.94L1892.49 1649.59L1917.47 1665.25L1942.44 1649.6ZM1505.68 1859.19V1795.25L1556.8 1827.3L1556.93 1827.39L1582.41 1811.41L1608.18 1827.57V1859.19L1556.93 1891.32L1505.68 1859.19ZM1608.18 1826.92L1582.93 1811.09L1608.18 1795.25V1826.92ZM1582.41 1810.76L1607.93 1794.76L1557.19 1762.93V1794.95L1582.41 1810.76ZM1608.18 1730.33L1608.18 1794.27L1557.19 1762.29L1557.19 1730.67L1582.95 1714.51L1608.18 1730.33ZM1583.47 1714.19L1608.18 1729.69V1698.69L1583.47 1714.19ZM1633.39 1714.18L1608.69 1698.69V1729.67L1633.39 1714.18ZM1608.69 1665.72V1698.04L1633.91 1713.86L1659.68 1697.7V1633.74L1608.69 1665.72ZM1711.19 1729.66V1665.73L1660.2 1633.75V1697.68L1711.19 1729.66ZM1711.96 1730.15L1762.55 1761.86L1762.61 1761.82L1813.52 1729.9L1762.94 1698.17L1711.96 1730.15ZM1762.26 1762.34L1711.7 1730.63V1794.27L1762.26 1762.56V1762.34ZM1814.47 1665.23L1789.93 1649.85L1814.8 1634.26L1815.14 1634.05V1601.71L1865.45 1633.26L1814.47 1665.23ZM1789.42 1650.17L1814.19 1665.71V1729.48L1814.04 1729.57L1763.21 1697.69V1666.6L1789.42 1650.17ZM1788.56 1648.99L1813.76 1633.18V1601.71L1763.47 1633.25L1788.56 1648.99ZM1763.21 1633.73L1788.05 1649.31L1763.21 1664.89V1633.73ZM1762.44 1633.25L1712.13 1601.7V1633.18L1737.34 1648.99L1762.44 1633.25ZM1735.96 1649.85L1710.76 1634.05V1601.72L1660.45 1633.26L1711.44 1665.23L1735.96 1649.85ZM1659.94 1698.18L1710.93 1730.15L1660.2 1761.97V1730.34L1634.42 1714.18L1659.94 1698.18ZM1711.19 1730.64L1660.45 1762.45L1711.19 1794.27V1730.64ZM1608.69 1794.27L1659.42 1762.45L1608.69 1730.64V1794.27ZM1608.95 1730.15L1659.68 1761.97V1730.67L1633.91 1714.5L1608.95 1730.15ZM1711.7 1665.73V1729.66L1762.69 1697.68V1666.61L1762.6 1666.56L1736.49 1650.19L1711.7 1665.73ZM1608.18 1601.12L1659.42 1633.26L1608.44 1665.23L1557.19 1633.1V1573.01C1559.2 1572.86 1560.79 1571.05 1560.79 1568.83C1560.79 1568.11 1560.62 1567.44 1560.33 1566.85L1608.18 1536.84V1601.12ZM1556.67 1573.01C1555.55 1572.93 1554.56 1572.32 1553.9 1571.42L1505.43 1601.82L1505.09 1601.6L1478.98 1585.23L1454.18 1600.78V1633.1L1479.96 1649.26L1505.43 1633.29L1505.55 1633.37L1530.9 1649.26L1556.67 1633.1V1573.01ZM1553.07 1568.83C1553.07 1568.11 1553.24 1567.44 1553.53 1566.85L1505.68 1536.84V1568.48L1505.55 1568.56L1480.35 1584.37L1505.43 1600.1L1553.26 1570.1C1553.14 1569.7 1553.07 1569.27 1553.07 1568.83ZM1553.81 1566.37C1554.38 1565.51 1555.25 1564.9 1556.24 1564.71V1504.81L1505.94 1536.36L1553.81 1566.37ZM1557.62 1504.8V1564.71C1558.62 1564.9 1559.48 1565.51 1560.06 1566.37L1607.92 1536.35L1557.62 1504.8ZM1582.95 1713.87L1608.18 1698.05V1665.72L1556.93 1633.58L1531.41 1649.58L1557.19 1665.75V1697.71L1582.95 1713.87ZM1710.76 1601.05L1660.2 1632.76V1568.84L1711.19 1536.86V1568.32L1711.1 1568.37L1710.76 1568.58V1601.05ZM1762.69 1664.89V1633.76L1737.87 1649.32L1762.69 1664.89ZM1762.69 1632.77L1712.13 1601.06V1569.44L1737.9 1553.28L1762.26 1568.57V1569.1L1762.69 1569.37V1632.77ZM1582.44 1714.19L1557.19 1698.36V1730.02L1582.44 1714.19ZM1556.67 1666.07V1697.71L1505.69 1729.68V1665.71L1530.9 1649.91L1556.67 1666.07ZM1556.67 1698.36L1505.69 1730.32V1730.33L1505.68 1730.33V1762.33L1556.67 1730.34V1698.36ZM1479.92 1746.48L1505.17 1730.65V1762.32L1479.92 1746.48ZM1505.68 1794.27V1762.97L1556.67 1730.99V1762.29L1505.68 1794.27ZM1556.67 1762.93L1505.93 1794.76L1556.93 1826.75L1581.9 1811.09L1556.67 1795.26V1762.93ZM1659.68 1762.93L1608.95 1794.75L1634.47 1810.76L1659.68 1794.95V1762.93ZM1634.98 1811.08L1660.07 1795.35L1660.2 1795.26V1762.93L1710.93 1794.75L1659.94 1826.73L1634.98 1811.08ZM1633.95 1811.08L1608.69 1795.24V1826.92L1633.95 1811.08ZM1608.69 1827.56L1634.47 1811.4L1659.81 1827.3L1659.94 1827.37L1711.19 1795.23V1859.19L1659.94 1891.32L1608.69 1859.19V1827.56ZM1814.72 1794.59L1763.91 1762.74L1814.45 1731.04L1865.28 1762.91V1826.64L1814.72 1858.34V1794.59ZM836.382 1600.28L887.12 1568.46V1632.1L836.382 1600.28ZM887.635 1696.69V1633.06L938.195 1664.77V1664.99L887.635 1696.69ZM887.634 1632.42L938.195 1664.12V1600.17L887.634 1568.46V1632.42ZM990.386 1696.33L939.813 1664.61L990.514 1632.82L990.643 1632.74V1600.43L1041.2 1632.14V1664.46L990.386 1696.33ZM1041.2 1631.49L990.643 1599.79V1569.01L1041.2 1600.72V1631.49ZM939.568 1600.72V1664.12L990.129 1632.42L990.129 1569.01L939.568 1600.72ZM938.539 1599.65L989.452 1567.72L938.881 1536L887.899 1567.98L938.466 1599.69L938.539 1599.65ZM1042.58 1631.49V1599.86L990.729 1567.34L990.643 1567.29V1535.51L1041.63 1503.54V1567.8L1092.89 1599.94L1042.58 1631.49ZM1042.15 1665.59L1042.23 1665.53L1042.58 1665.32V1664.77L1092.71 1633.33V1697.6L1143.96 1729.74L1093.65 1761.29V1728.97L1042.15 1696.67L1042.15 1665.59ZM991.33 1697.46L1041.63 1665.91V1696.67L1015.86 1712.84L991.33 1697.46ZM989.954 1697.78L990.042 1697.84L990.386 1698.05L990.813 1697.78L1015.34 1713.16L990.257 1728.89L990.128 1728.97V1761.63L939.139 1793.61L939.139 1733.58C941.148 1733.44 942.738 1731.62 942.738 1729.4C942.738 1728.76 942.606 1728.16 942.371 1727.62L989.954 1697.78ZM942.121 1727.13L989.439 1697.46L938.441 1665.48L887.875 1697.18L935.641 1727.13C936.328 1725.98 937.522 1725.22 938.882 1725.22C940.24 1725.22 941.434 1725.98 942.121 1727.13ZM935.39 1727.62L887.377 1697.52L836.131 1729.65L836.13 1793.61L887.377 1761.47L887.506 1761.55L938.624 1793.6V1733.58C936.614 1733.44 935.027 1731.62 935.027 1729.4C935.027 1728.77 935.157 1728.16 935.39 1727.62ZM732.607 1663.85L732.607 1600.44L681.361 1568.3L630.114 1600.44V1663.85L681.361 1631.71L681.704 1631.93L732.607 1663.85ZM809.841 1681.52L785.055 1697.07V1697.29L835.616 1729V1697.69L809.841 1681.52ZM784.786 1696.59L809.326 1681.2L784.626 1665.71V1696.49L784.786 1696.59ZM836.131 1697.36L810.355 1681.2L835.877 1665.2L886.868 1697.18L836.131 1729V1697.36ZM835.616 1600.77L835.616 1664.72L809.84 1680.88L784.626 1665.07V1636.75C786.636 1636.61 788.224 1634.8 788.224 1632.58C788.224 1631.92 788.083 1631.29 787.833 1630.74L835.616 1600.77ZM784.111 1665.06V1636.75C782.102 1636.61 780.513 1634.8 780.513 1632.58C780.513 1630.27 782.239 1628.39 784.369 1628.39C785.706 1628.39 786.884 1629.13 787.575 1630.25L835.367 1600.29L784.369 1568.3L733.122 1600.44V1664.18L733.552 1664.44V1664.46L759.316 1680.62L784.111 1665.06ZM887.12 1696.69L836.131 1664.72V1600.77L887.12 1632.75V1696.69ZM630.799 1665.15L681.361 1633.44L731.499 1664.88L681.017 1696.54L680.941 1696.59L630.799 1665.15ZM630.543 1665.63L680.673 1697.07V1760.48L630.543 1729.05V1665.63ZM732.864 1793.22L682.726 1761.78L732.607 1730.5V1762.29L757.397 1777.83L732.864 1793.22ZM733.208 1730.12L733.122 1730.17V1761.96L757.915 1777.51L783.682 1761.35V1697.62L758.457 1681.8L733.552 1697.42V1729.9L733.208 1730.12ZM733.552 1666.18V1696.77L757.942 1681.48L733.552 1666.18ZM732.178 1729.05V1666.18L682.047 1697.62V1760.48L732.178 1729.05ZM785.055 1697.94L835.615 1729.65V1761.97L784.369 1794.1L759.291 1778.37L784.712 1762.43L785.055 1762.21V1697.94ZM784.111 1696.17V1665.71L759.83 1680.94L784.111 1696.17ZM1608.18 1310.77L1557.19 1342.74V1407.02L1582.66 1422.99L1604.97 1409C1604.72 1408.44 1604.58 1407.82 1604.58 1407.15C1604.58 1404.84 1606.31 1402.97 1608.44 1402.97C1609.78 1402.97 1610.96 1403.71 1611.65 1404.84L1659.43 1374.88L1608.18 1342.74V1310.77ZM1611.9 1409C1612.15 1408.44 1612.29 1407.82 1612.29 1407.15C1612.29 1406.5 1612.15 1405.88 1611.91 1405.33L1659.68 1375.37V1407.02L1634.21 1422.99L1611.9 1409ZM1611.64 1409.49L1633.69 1423.32L1608.69 1438.99V1411.33C1609.92 1411.24 1610.99 1410.53 1611.64 1409.49ZM1608.18 1411.33V1438.99L1583.18 1423.32L1605.23 1409.49C1605.88 1410.53 1606.95 1411.24 1608.18 1411.33ZM1582.66 1423.64L1557.19 1439.61L1557.19 1503.36L1557.62 1503.63V1504.16L1608.44 1536.03L1659.41 1504.06L1608.18 1471.94V1439.64L1582.66 1423.64ZM1608.69 1439.64V1471.62L1659.68 1503.59V1439.61L1634.21 1423.64L1608.69 1439.64ZM1634.72 1423.32L1660.2 1439.29V1503.59L1711.19 1471.62V1407.87L1710.76 1407.6V1407.07L1660.2 1375.37V1407.34L1634.72 1423.32ZM1659.68 1374.4L1608.69 1342.42V1310.77L1659.68 1342.74V1374.4ZM1660.2 1374.4V1342.42L1608.69 1310.12V1278.14L1659.68 1246.17V1310.45L1710.76 1342.47V1342.69L1660.2 1374.4ZM1556.67 1439.62V1503.04L1505.78 1471.11L1505.43 1470.9L1479.52 1487.15L1454.18 1471.26V1439.62L1505.43 1407.49L1556.67 1439.62ZM1711.71 1149.27V1212.97L1762.49 1181.12L1711.71 1149.27ZM1763.01 1180.8L1711.95 1148.78L1762.96 1116.8L1814.01 1148.81L1763.01 1180.8ZM1763.21 1181.32L1814.2 1149.34V1213.21L1763.21 1245.19V1181.32ZM1762.69 1181.64V1245.18L1712.03 1213.41L1762.69 1181.64ZM1660.2 1246.17V1310.12L1711 1341.98L1711.1 1341.92L1711.19 1341.87V1278.14L1660.2 1246.17ZM1711.7 1278.15V1341.54L1762.69 1309.57V1246.17L1711.7 1278.15ZM1813.76 1343L1763.21 1311.3V1374.69L1813.76 1406.4V1343ZM1712.13 1343L1762.69 1311.29V1374.71L1712.13 1406.41V1343ZM1762.96 1375.19L1712.39 1406.9L1762.94 1438.6L1813.51 1406.89L1762.96 1375.19ZM1660.46 1374.88L1710.76 1343.34V1406.42L1660.46 1374.88ZM1762.01 1439.74L1711.71 1408.19V1471.28L1762.01 1439.74ZM1814.2 1408.19L1763.89 1439.73L1814.04 1471.17L1814.2 1471.07V1408.19ZM1762.6 1440.11L1762.52 1440.06L1711.96 1471.76L1762.54 1503.47L1762.61 1503.43L1813.52 1471.5L1763.38 1440.05L1762.94 1440.33L1762.6 1440.11ZM1659.94 1504.4L1659.93 1504.39L1608.95 1536.36L1659.95 1568.34L1710.94 1536.37L1659.95 1504.39L1659.94 1504.4ZM1711.19 1472.26L1660.47 1504.07L1711.19 1535.88V1472.26ZM1762.26 1503.95L1711.71 1472.25V1536.2L1737.05 1552.09L1762.26 1536.28V1503.95ZM1762.26 1567.9L1738.42 1552.95L1762.26 1538V1567.9ZM1763.89 1568.4L1813.76 1599.67V1569.44L1787.99 1553.28L1763.89 1568.4ZM1787.48 1552.96L1763.64 1567.91V1538.01L1787.48 1552.96ZM1789.37 1552.42L1815.14 1568.58V1599.68L1865.02 1568.4L1814.45 1536.69L1789.37 1552.42ZM1814.19 1536.2L1788.85 1552.1L1763.64 1536.29V1504.5L1814.19 1472.8V1536.2ZM1814.72 1536.2L1865.28 1567.91V1504.5L1814.72 1472.8V1536.2ZM1608.69 1600.8L1659.68 1632.77V1568.82L1608.69 1536.84V1600.8ZM1736.53 1552.42L1711.7 1567.99V1536.86L1736.53 1552.42ZM1763.21 1569.69L1813.5 1601.23L1763.21 1632.77V1569.69ZM1196.15 1471.22L1144.9 1439.08L1094.16 1470.9L1145.16 1502.88V1567.47L1196.15 1535.5V1471.22ZM1220.81 1616.6L1196.4 1601.3L1172.16 1616.5L1196.56 1631.8L1220.81 1616.6ZM1170.27 1617.04L1144.9 1601.13L1094.33 1632.84L1144.64 1664.39V1633.11L1144.77 1633.03L1170.27 1617.04ZM1145.16 1633.43L1170.79 1617.36L1195.72 1632.99V1696.73L1169.66 1713.07L1145.16 1697.71V1633.43ZM1144.64 1665.04L1094.08 1633.33V1696.73L1144.64 1728.44V1665.04ZM1145.16 1698.35L1169.15 1713.4L1145.16 1728.44V1698.35ZM1170.52 1714.26L1144.9 1730.32L1144.56 1730.11L1144.48 1730.06L1093.65 1761.94V1793.9L1093.52 1793.97L1042.15 1826.2V1857.85L1247.22 1729.24V1729.01L1222.99 1713.82L1196.4 1730.49L1196.27 1730.41L1170.52 1714.26ZM1223.5 1713.5L1247.22 1728.37V1698.62L1223.5 1713.5ZM1222.47 1713.5L1196.4 1729.85L1171.03 1713.93L1196.75 1697.81L1197.09 1697.6V1697.57L1222.47 1713.5ZM1299.67 1697L1299.67 1696.98L1299.67 1696.98V1666.6L1350.23 1698.3V1761.71L1299.54 1729.93L1299.41 1729.85L1248.59 1761.72V1729.03L1299.67 1697ZM1248.59 1698.3L1299.15 1666.6V1696.66L1248.59 1728.37V1698.3ZM1144.13 1567.8L1093.65 1536.14V1599.46L1144.13 1567.8ZM1093.14 1761.29V1729.29L1042.15 1697.32V1729.31L1093.14 1761.29ZM1041.63 1697.32V1729L1016.37 1713.16L1041.63 1697.32ZM1042.15 1729.96V1825.55L1093.14 1793.57V1761.93L1042.15 1729.96ZM939.139 1794.57V1858.53L990.101 1890.48L1041.63 1858.17V1826.19L1016.42 1810.38L990.386 1826.71L990.257 1826.63L939.139 1794.57ZM1015.9 1810.06L990.386 1826.06L939.405 1794.09L990.128 1762.27V1793.9L1015.9 1810.06ZM1016.93 1810.06L1041.63 1825.55V1794.57L1016.93 1810.06ZM1041.37 1794.09L1016.42 1809.73L990.643 1793.57V1762.27L1041.37 1794.09ZM1041.63 1793.6L990.643 1761.63V1729.29L1015.86 1713.48L1041.63 1729.64V1793.6ZM1428.41 1487.75L1453.67 1471.91V1503.36L1453.49 1503.47L1428.41 1487.75ZM1454.18 1471.91V1503.04L1479 1487.47L1454.18 1471.91ZM1454.61 1567.91V1504.81L1504.92 1536.36L1454.61 1567.91ZM1454.87 1504.33L1505.17 1535.87V1503.88L1480.38 1488.33L1454.87 1504.33ZM1505.68 1503.56V1535.88L1555.99 1504.33L1505.43 1472.62L1480.89 1488.01L1505.68 1503.56ZM1401.9 1600.96L1351.17 1569.16V1599.9L1377.39 1616.33L1401.9 1600.96ZM1402.43 1600.64L1402.42 1600.64L1402.41 1600.64L1351.42 1568.67L1402.16 1536.84V1568.48L1427.94 1584.65L1402.43 1600.64ZM1402.41 1601.29L1402.42 1601.3L1402.43 1601.29L1453.42 1633.26L1428.89 1648.63L1377.9 1616.66L1402.41 1601.29ZM1402.95 1600.96L1428.46 1584.97L1453.67 1600.78V1632.77L1402.95 1600.96ZM1428.97 1584.65L1453.67 1600.13V1569.35L1453.51 1569.26L1428.97 1584.65ZM1427.89 1488.07L1453.24 1503.97V1567.9L1402.68 1536.2V1503.88L1427.89 1488.07ZM1427.38 1487.75L1402.42 1472.1L1351.17 1504.24V1568.17L1402.16 1536.2V1503.56L1427.38 1487.75ZM1453.24 1568.78L1428.46 1584.32L1402.68 1568.16V1536.84L1453.24 1568.55V1568.78ZM1454.18 1600.13L1478.47 1584.9L1454.18 1569.68V1600.13ZM1505.17 1568.16V1536.85L1454.87 1568.39L1479.83 1584.05L1505.17 1568.16ZM1505.43 1633.94L1480.48 1649.58L1505.43 1665.23L1530.38 1649.58L1505.43 1633.94ZM1351.17 1633.74V1697.17L1351.6 1697.44V1697.96L1402.01 1729.57L1402.16 1729.47V1665.72L1351.17 1633.74ZM1351.17 1632.77L1376.99 1616.58L1351.17 1600.39V1632.77ZM1351.43 1633.26L1377.51 1616.9L1428.49 1648.88L1402.42 1665.23L1351.43 1633.26ZM1401.49 1729.89L1351.6 1698.61V1761.18L1401.49 1729.89ZM1403.35 1729.89L1454.35 1761.88L1478.89 1746.49L1453.67 1730.67V1698.34L1403.35 1729.89ZM1453.67 1697.69V1633.75L1402.68 1665.73V1729.47L1402.77 1729.53L1402.84 1729.57L1453.67 1697.69ZM1454.18 1665.42L1479.44 1649.59L1454.18 1633.76V1665.42ZM1454.18 1666.07V1730.34L1479.41 1746.16L1505.17 1730V1665.73L1479.95 1649.91L1454.18 1666.07ZM836.13 1794.58V1858.53L887.377 1890.66L938.624 1858.53V1794.57L887.377 1826.71L887.248 1826.63L836.13 1794.58ZM938.364 1794.09L887.377 1826.07L836.39 1794.09L887.377 1762.11L938.364 1794.09ZM1299.41 1730.49L1349.97 1762.2L1299.41 1793.91L1248.85 1762.2L1299.41 1730.49ZM1248.16 1826.91V1763.5L1299.07 1795.41L1299.15 1795.47V1858.88L1248.16 1826.91ZM1299.67 1858.88V1795.47L1350.23 1763.76V1827.18L1299.67 1858.88ZM1402.68 1794.62V1858.34L1453.24 1826.64V1762.91L1402.42 1731.04L1351.86 1762.75L1402.68 1794.62ZM1299.91 1859.37L1350.92 1891.35L1401.49 1859.64L1350.49 1827.66L1299.91 1859.37ZM1402.16 1794.95V1858.34L1351.6 1826.64V1763.23L1402.16 1794.95ZM1814.8 1729.53L1814.87 1729.57L1865.7 1697.69V1633.75L1814.71 1665.73V1729.47L1814.8 1729.53ZM1866.38 1761.88L1815.38 1729.89L1865.7 1698.34V1730.67L1890.92 1746.49L1866.38 1761.88ZM1763.64 1826.64L1814.2 1858.35V1794.95L1763.64 1763.23V1826.64ZM1813.5 1859.63L1762.26 1827.5V1763.24L1711.7 1794.95V1859.19L1762.96 1891.32L1813.5 1859.63ZM1042.15 1503.54L1093.14 1535.51V1599.46L1042.15 1567.48V1503.54Z" fill="#FF1A26"/>
<path d="M633.711 1535.7C633.711 1538.02 631.985 1539.89 629.856 1539.89C627.726 1539.89 626 1538.02 626 1535.7C626 1533.39 627.726 1531.51 629.856 1531.51C631.985 1531.51 633.711 1533.39 633.711 1535.7Z" fill="#FF1A26"/>
</g>
</svg>
