<svg width="1453" height="1370" viewBox="0 0 1453 1370" fill="none" xmlns="http://www.w3.org/2000/svg">
<path d="M1069.47 3.61908C1083.04 1.0736 1089.83 -0.199174 1096.66 0.166658C1103.49 0.532447 1110.11 2.52295 1123.33 6.50402L1371.11 81.0803C1410.2 92.846 1429.74 98.7288 1441 113.869C1452.25 129.009 1452.25 149.42 1452.25 190.243L1452.25 566.503L1452.25 1255.5C1452.25 1309.24 1452.25 1336.11 1435.56 1352.81C1418.86 1369.5 1391.99 1369.5 1338.25 1369.5L114.751 1369.5C61.0115 1369.5 34.1415 1369.5 17.4466 1352.81C0.751676 1336.11 0.75159 1309.24 0.751504 1255.5L0.748499 298.612C0.748415 253.36 0.748287 230.734 13.8863 214.904C27.0244 199.073 49.263 194.904 93.74 186.564L1069.47 3.61908Z" fill="#FFF9EF"/>
</svg>
