<svg width="121" height="25" viewBox="0 0 121 25" fill="none" xmlns="http://www.w3.org/2000/svg">
<g clip-path="url(#clip0_1_1111)">
<mask id="mask0_1_1111" style="mask-type:alpha" maskUnits="userSpaceOnUse" x="0" y="0" width="24" height="24">
<path d="M23.631 3.85468C23.631 5.37433 22.3991 6.60623 20.8794 6.60623H9.94543V2.88317C9.94543 1.36339 11.1775 0.131348 12.6973 0.131348H23.631V3.85468Z" fill="#065BE7"/>
<path d="M7.88536 3.85468C7.88536 5.37433 6.65345 6.60623 5.13381 6.60623H0.0860596V2.88317C0.0860596 1.36339 1.3181 0.131348 2.83788 0.131348H7.88536V3.85468Z" fill="#065BE7"/>
<path d="M7.88536 20.925C7.88536 22.4446 6.65345 23.6765 5.13381 23.6765H0.0860596V19.9535C0.0860596 18.4337 1.3181 17.2017 2.83788 17.2017H7.88536V20.925Z" fill="#FFDC34"/>
<path d="M15.6846 12.3907C15.6846 13.9103 14.4527 15.1423 12.9332 15.1423H0.0860596V11.4192C0.0860596 9.8994 1.31809 8.66736 2.83789 8.66736H15.6846V12.3907Z" fill="#065BE7"/>
</mask>
<g mask="url(#mask0_1_1111)">
<path d="M0.0743408 0.131104H24.0401V24.5668H0.0743408V0.131104Z" fill="url(#paint0_linear_1_1111)"/>
<path d="M7.88536 20.9247C7.88536 22.4442 6.65345 23.6761 5.13381 23.6761H0.0860596V19.9531C0.0860596 18.4333 1.3181 17.2013 2.83788 17.2013H7.88536V20.9247Z" fill="#C2E90D"/>
</g>
<path d="M119.273 12.3791H113.832V23.6762H108.734V7.64343H113.832V10.5341C114.02 9.72098 114.416 9.1028 115.02 8.51905C115.625 7.93531 116.365 7.64343 117.241 7.64343H119.273V12.3791Z" fill="#1C6BED"/>
<path d="M106.025 14.864C106.025 15.5909 105.95 16.3285 105.8 17.0768H95.4418C95.5487 17.8252 95.88 18.4024 96.436 18.8086C96.9918 19.2149 97.7295 19.4179 98.6488 19.4179C99.3543 19.4179 99.9958 19.3003 100.573 19.0651C101.172 18.83 101.674 18.4986 102.08 18.071L105.319 21.1498C103.545 23.0311 101.225 23.9719 98.3602 23.9719C95.7946 23.9719 93.7741 23.245 92.2989 21.7912C90.8237 20.3159 90.0861 18.3276 90.0861 15.8261C90.0861 14.1371 90.4282 12.6404 91.1123 11.3363C91.7965 10.0321 92.7479 9.02724 93.9665 8.3217C95.2066 7.59478 96.6177 7.23132 98.1999 7.23132C99.7177 7.23132 101.065 7.56271 102.241 8.2255C103.438 8.8669 104.368 9.76486 105.031 10.9194C105.693 12.0739 106.025 13.3888 106.025 14.864ZM98.1677 11.5608C97.4409 11.5608 96.8422 11.796 96.3718 12.2663C95.9015 12.7153 95.6021 13.346 95.4738 14.1584H100.83C100.787 13.3674 100.53 12.7367 100.06 12.2663C99.5895 11.796 98.9587 11.5608 98.1677 11.5608Z" fill="#1C6BED"/>
<path d="M73.8519 23.6871L71.3454 19.6313L68.8483 23.6871H62.5939L68.093 15.6597L62.6966 7.62817H69.0448L71.4528 11.6843L73.0789 9.03541C73.3916 8.55591 73.7565 8.2015 74.1734 7.97217C74.6113 7.74283 75.1741 7.62817 75.8622 7.62817H80.0525L74.4595 15.6597L80.1688 23.6871H73.8519Z" fill="#1C6BED"/>
<path d="M46.4923 0.13208H49.1514C50.1011 0.13208 50.7974 0.365694 51.2406 0.832924C51.7049 1.27891 51.9371 1.97976 51.9371 2.93547V23.6772H46.4923V0.13208Z" fill="#1C6BED"/>
<path d="M40.2587 4.72016C39.6124 4.72016 39.1642 4.85566 38.914 5.12669C38.6638 5.37687 38.5387 5.83553 38.5387 6.50267V7.636H42.8855V9.13707C42.8855 10.0752 42.6562 10.7736 42.1975 11.2323C41.7596 11.6701 41.0717 11.889 40.1335 11.889H38.6951V23.676H33.2516V11.889H31.1251V7.636H33.3768V5.25178C33.3768 3.64648 33.825 2.39559 34.7215 1.49912C35.6179 0.602654 37.0688 0.154419 38.9452 0.154419H43.0106V4.72016H40.2587Z" fill="#1C6BED"/>
<path d="M60.6193 2.19586C60.6193 1.05614 59.6954 0.132202 58.5556 0.132202H55.4689V4.69406H60.6193V2.19586Z" fill="#1C6BED"/>
<path d="M87.5491 2.19586C87.5491 1.05614 86.6252 0.132202 85.4854 0.132202H82.3986V4.69406H87.5491V2.19586Z" fill="#1C6BED"/>
<path d="M55.4689 7.63745H60.6193V23.6775H55.4689V7.63745Z" fill="#1C6BED"/>
<path d="M82.3986 7.63757H87.5491V23.6776H82.3986V7.63757Z" fill="#1C6BED"/>
</g>
<defs>
<linearGradient id="paint0_linear_1_1111" x1="0.373913" y1="0.782722" x2="18.7776" y2="24.4311" gradientUnits="userSpaceOnUse">
<stop stop-color="#63B3FF"/>
<stop offset="0.396286" stop-color="#1F6CFF"/>
<stop offset="1" stop-color="#00359D"/>
</linearGradient>
<clipPath id="clip0_1_1111">
<rect width="120" height="24" fill="white" transform="translate(0.0821533 0.052002)"/>
</clipPath>
</defs>
</svg>
