<svg width="96" height="33" viewBox="0 0 96 33" fill="none" xmlns="http://www.w3.org/2000/svg">
<g clip-path="url(#clip0_1_1103)">
<path d="M40.733 16.4622C40.733 20.904 37.2582 24.177 32.9938 24.177C28.7295 24.177 25.2547 20.904 25.2547 16.4622C25.2547 11.9892 28.7295 8.74744 32.9938 8.74744C37.2582 8.74744 40.733 11.9892 40.733 16.4622ZM37.3451 16.4622C37.3451 13.6866 35.3312 11.7874 32.9938 11.7874C30.6564 11.7874 28.6425 13.6866 28.6425 16.4622C28.6425 19.21 30.6564 21.137 32.9938 21.137C35.3312 21.137 37.3451 19.2066 37.3451 16.4622Z" fill="#EA4335"/>
<path d="M57.4322 16.4622C57.4322 20.904 53.9574 24.177 49.693 24.177C45.4287 24.177 41.9539 20.904 41.9539 16.4622C41.9539 11.9927 45.4287 8.74744 49.693 8.74744C53.9574 8.74744 57.4322 11.9892 57.4322 16.4622ZM54.0444 16.4622C54.0444 13.6866 52.0304 11.7874 49.693 11.7874C47.3557 11.7874 45.3417 13.6866 45.3417 16.4622C45.3417 19.21 47.3557 21.137 49.693 21.137C52.0304 21.137 54.0444 19.2066 54.0444 16.4622Z" fill="#FBBC05"/>
<path d="M73.431 9.2134V23.0638C73.431 28.7612 70.071 31.0882 66.0988 31.0882C62.3597 31.0882 60.1092 28.5873 59.2605 26.5421L62.2101 25.3143C62.7353 26.5699 64.0223 28.0517 66.0953 28.0517C68.6379 28.0517 70.2136 26.483 70.2136 23.5299V22.4204H70.0953C69.3371 23.356 67.8762 24.1734 66.0327 24.1734C62.1753 24.1734 58.6414 20.8134 58.6414 16.4899C58.6414 12.1351 62.1753 8.74731 66.0327 8.74731C67.8727 8.74731 69.3336 9.56471 70.0953 10.4725H70.2136V9.21688H73.431V9.2134ZM70.4536 16.4899C70.4536 13.7734 68.6414 11.7873 66.3353 11.7873C63.9979 11.7873 62.0397 13.7734 62.0397 16.4899C62.0397 19.1786 63.9979 21.1369 66.3353 21.1369C68.6414 21.1369 70.4536 19.1786 70.4536 16.4899Z" fill="#4285F4"/>
<path d="M78.7348 1.09534V23.704H75.4305V1.09534H78.7348Z" fill="#34A853"/>
<path d="M91.611 19.0015L94.2405 20.7546C93.3918 22.0102 91.3466 24.1737 87.8127 24.1737C83.4301 24.1737 80.157 20.7859 80.157 16.4589C80.157 11.8711 83.4579 8.74414 87.4336 8.74414C91.437 8.74414 93.3953 11.9302 94.0353 13.652L94.3866 14.5285L84.0736 18.7998C84.8631 20.3476 86.091 21.1372 87.8127 21.1372C89.5379 21.1372 90.7344 20.2885 91.611 19.0015ZM83.517 16.2259L90.411 13.3633C90.0318 12.3998 88.891 11.7285 87.5483 11.7285C85.8266 11.7285 83.4301 13.2485 83.517 16.2259Z" fill="#EA4335"/>
<path d="M12.7519 14.4553V11.1823H23.7815C23.8893 11.7527 23.945 12.4275 23.945 13.1579C23.945 15.6136 23.2737 18.6501 21.1102 20.8136C19.0058 23.0049 16.3171 24.1736 12.7554 24.1736C6.15366 24.1736 0.602356 18.7962 0.602356 12.1945C0.602356 5.59272 6.15366 0.215332 12.7554 0.215332C16.4076 0.215332 19.0093 1.64838 20.9641 3.5162L18.6545 5.82577C17.2528 4.51098 15.3537 3.48838 12.7519 3.48838C7.93105 3.48838 4.16062 7.37359 4.16062 12.1945C4.16062 17.0153 7.93105 20.9006 12.7519 20.9006C15.8789 20.9006 17.6597 19.6449 18.8006 18.504C19.7258 17.5788 20.3345 16.2571 20.5745 14.4519L12.7519 14.4553Z" fill="#4285F4"/>
</g>
<defs>
<clipPath id="clip0_1_1103">
<rect width="94.6087" height="32" fill="white" transform="translate(0.47345 0.052002)"/>
</clipPath>
</defs>
</svg>
