<svg width="1193" height="528" viewBox="0 0 1193 528" fill="none" xmlns="http://www.w3.org/2000/svg">
<path fill-rule="evenodd" clip-rule="evenodd" d="M119.69 -5.90879H0.911929V112.872H107.385L119.69 100.566V-5.90879ZM132.324 112.872L120.177 100.725V-5.90879H238.956V112.872H132.324ZM120.177 125.325L132.143 113.359H238.956V232.14H120.177V125.325ZM107.566 113.359L119.69 125.484V232.14H0.911929V113.359H107.566ZM0.494675 -6.32605V112.942V113.289V232.209V232.557V351.477V351.824V470.744V471.092V590.012V590.359V709.627H119.76H120.108H239.025H239.373H358.29H358.638H477.556H477.903H596.82H597.168H716.086H716.433H835.351H835.699H954.616H954.964H1073.88H1074.23H1193.49L1193.49 590.359V471.092V470.744V351.477V232.557V113.289V112.942V-6.32605H1074.23H1073.88H954.964H954.616H835.699H835.351H716.433H716.086H597.168H596.82H477.903H477.556H358.638H358.29H239.373H239.025H120.108H119.76H0.494675ZM239.442 -5.90879H358.221V112.872H239.442V-5.90879ZM477.486 -5.90879H358.707V112.872H477.486V-5.90879ZM477.973 -5.90879H596.751V112.872H477.973V-5.90879ZM716.016 -5.90879H597.238V112.872H716.016V-5.90879ZM716.503 -5.90879H835.281V112.872H716.503V-5.90879ZM954.547 -5.90879H835.768V112.872H954.547V-5.90879ZM955.033 -5.90879H1073.81V112.872H955.033V-5.90879ZM1193.08 -5.90879H1074.3V112.872H1193.08V-5.90879ZM239.442 113.359H358.221V232.14H239.442V113.359ZM477.486 113.359H358.707V232.14H465.538L477.486 220.192V113.359ZM489.729 232.14L477.973 220.383V113.359H596.751V232.14H489.729ZM477.973 244.951L490.256 232.667L490.216 232.626H596.751V351.407H477.973V244.951ZM465.052 232.626L465.011 232.667L477.486 245.142V351.407H358.707V232.626H465.052ZM716.016 113.359H597.238V232.14H716.016V113.359ZM716.503 113.359H835.281V232.14H716.503V113.359ZM954.547 113.359H835.768V232.14H954.547V113.359ZM955.033 113.359H1073.81V199.186L1073.61 199.388L1040.86 232.14H955.033V113.359ZM1040.37 232.626H955.034V339.705L955.432 339.306L967.533 351.407H1073.81V266.148L1073.61 265.946L1040.65 232.989L1040.33 232.667L1040.37 232.626ZM1073.81 265.504L1040.98 232.667L1041.02 232.626H1061.35L1061.31 232.667L1073.81 245.169V265.504ZM1074.3 265.902V351.407H1193.08V232.626H1107.49L1107.53 232.667L1107.21 232.989L1074.3 265.902ZM1106.85 232.626L1106.89 232.667L1074.3 265.258V244.924L1086.56 232.667L1086.51 232.626H1106.85ZM1107.01 232.14H1193.08V113.359H1074.3V199.432L1107.01 232.14ZM1074.3 200.076L1106.36 232.14H1086.03L1074.3 220.41V200.076ZM1073.81 199.831L1041.5 232.14H1061.84L1073.81 220.165V199.831ZM955.033 364.153L955.432 364.552L968.055 351.929L968.02 351.894H1073.81V470.675H955.033V364.153ZM942.845 351.894L942.81 351.929L954.547 363.666V470.675H835.768V351.894H942.845ZM954.547 340.192L943.332 351.407H835.768V232.626H954.547V340.192ZM0.911929 232.626H119.69V351.407H0.911929V232.626ZM238.956 232.626H120.177V351.407H238.956V232.626ZM239.442 232.626H358.221V351.407H239.442V232.626ZM716.017 232.626H597.238V351.407H716.017V232.626ZM716.503 232.626H835.281V351.407H716.503V232.626ZM0.911929 351.894H119.69V470.675H0.911929V351.894ZM238.956 351.894H120.177V470.675H206.137L205.982 470.52L206.304 470.198L238.956 437.546V351.894ZM238.956 438.19L206.627 470.52L206.781 470.675H227.115L226.96 470.52L238.956 458.525V438.19ZM239.442 458.038V437.704L239.583 437.563L272.539 470.52L272.385 470.675H252.051L252.206 470.52L239.583 457.897L239.442 458.038ZM239.442 483.002L239.583 483.143L251.564 471.161H271.898L239.583 503.477L239.442 503.336V483.002ZM227.602 471.161L238.956 482.515V502.85L207.268 471.161H227.602ZM206.623 471.161H120.177V589.942H238.956V503.494L206.623 471.161ZM239.442 503.981V589.942H358.221V471.161H272.542L239.905 503.799L239.583 504.122L239.442 503.981ZM273.029 470.675H358.221V351.894H239.442V437.059L239.583 436.918L239.905 437.241L272.862 470.198L273.184 470.52L273.029 470.675ZM477.486 351.894H358.707V470.675H477.486V351.894ZM477.973 351.894H596.751V470.675H477.973V351.894ZM716.016 351.894H597.238V470.675H716.016V351.894ZM716.503 351.894H835.281V470.675H716.503V351.894ZM1193.08 351.894H1074.3V470.675H1193.08V351.894ZM0.911929 471.161H119.69V589.942H0.911929V471.161ZM477.486 471.161H358.707V589.942H477.486V471.161ZM477.973 471.161H596.751V589.942H477.973V471.161ZM716.016 471.161H597.238V589.942H716.016V471.161ZM716.503 471.161H835.281V589.942H716.503V471.161ZM954.547 471.161H835.768V589.942H954.547V471.161ZM955.033 471.161H1073.81V589.942H955.033V471.161ZM1193.08 471.161H1074.3V589.942H1193.08V471.161ZM0.911929 590.429H119.69V709.21H0.911929V590.429ZM238.956 590.429H120.177V709.21H238.956V590.429ZM239.442 590.429H358.221V709.21H239.442V590.429ZM477.486 590.429H358.707V709.21H477.486V590.429ZM477.973 590.429H596.751V709.21H477.973V590.429ZM716.016 590.429H597.238V709.21H716.016V590.429ZM716.503 590.429H835.281V709.21H716.503V590.429ZM954.547 590.429H835.768V709.21H954.547V590.429ZM955.033 590.429H1073.81V709.21H955.033V590.429ZM1193.08 590.429H1074.3V709.21H1193.08V590.429Z" fill="url(#paint0_radial_1_1250)" fill-opacity="0.35"/>
<defs>
<radialGradient id="paint0_radial_1_1250" cx="0" cy="0" r="1" gradientUnits="userSpaceOnUse" gradientTransform="translate(596.995 -408.171) rotate(90) scale(1027.59 1712.29)">
<stop stop-color="white"/>
<stop offset="1" stop-color="white" stop-opacity="0"/>
</radialGradient>
</defs>
</svg>
