<svg width="31" height="31" viewBox="0 0 31 31" fill="none" xmlns="http://www.w3.org/2000/svg">
<rect x="0.5" y="0.5" width="30" height="30" rx="5" fill="#EF1515"/>
<path d="M4.32472 9.10895V18.6823L12.4114 23.4687L20.498 18.6823V9.10895L12.4114 4.32249L4.32472 9.10895ZM19.9204 9.22305L12.4114 13.668L4.90234 9.22305L12.4114 4.77848L19.9204 9.22305ZM4.7098 9.56494L12.2188 14.0095V22.899L4.7098 18.4541V9.56494ZM12.6039 22.899V14.0095L20.1129 9.56494V18.4545L12.6039 22.899Z" fill="#EF1515"/>
<path d="M4.32472 9.10895L4.09127 8.71453L3.86639 8.84764V9.10895H4.32472ZM4.32472 18.6823H3.86639V18.9436L4.09127 19.0767L4.32472 18.6823ZM12.4114 23.4687L12.1779 23.8631L12.4114 24.0013L12.6448 23.8631L12.4114 23.4687ZM20.498 18.6823L20.7314 19.0767L20.9563 18.9436V18.6823H20.498ZM20.498 9.10895H20.9563V8.84764L20.7314 8.71453L20.498 9.10895ZM12.4114 4.32249L12.6448 3.92807L12.4114 3.78989L12.1779 3.92807L12.4114 4.32249ZM19.9204 9.22305L20.1538 9.61746L20.8202 9.22303L20.1538 8.82863L19.9204 9.22305ZM12.4114 13.668L12.1779 14.0624L12.4114 14.2006L12.6448 14.0624L12.4114 13.668ZM4.90234 9.22305L4.66888 8.82863L4.00255 9.22303L4.66887 9.61746L4.90234 9.22305ZM12.4114 4.77848L12.6448 4.38406L12.4114 4.24588L12.1779 4.38406L12.4114 4.77848ZM4.7098 9.56494L4.94326 9.17052L4.25147 8.76105V9.56494H4.7098ZM12.2188 14.0095H12.6772V13.7482L12.4523 13.6151L12.2188 14.0095ZM12.2188 22.899L11.9853 23.2935L12.6772 23.703V22.899H12.2188ZM4.7098 18.4541H4.25147V18.7154L4.47633 18.8485L4.7098 18.4541ZM12.6039 22.899H12.1456V23.7029L12.8374 23.2935L12.6039 22.899ZM12.6039 14.0095L12.3704 13.6151L12.1456 13.7482V14.0095H12.6039ZM20.1129 9.56494H20.5712V8.76105L19.8795 9.17052L20.1129 9.56494ZM20.1129 18.4545L20.3464 18.8489L20.5712 18.7158V18.4545H20.1129ZM3.86639 9.10895V18.6823H4.78306V9.10895H3.86639ZM4.09127 19.0767L12.1779 23.8631L12.6448 23.0743L4.55818 18.2878L4.09127 19.0767ZM12.6448 23.8631L20.7314 19.0767L20.2645 18.2878L12.1779 23.0743L12.6448 23.8631ZM20.9563 18.6823V9.10895H20.0397V18.6823H20.9563ZM20.7314 8.71453L12.6448 3.92807L12.1779 4.71691L20.2645 9.50337L20.7314 8.71453ZM12.1779 3.92807L4.09127 8.71453L4.55818 9.50337L12.6448 4.71691L12.1779 3.92807ZM19.6869 8.82864L12.1779 13.2736L12.6448 14.0624L20.1538 9.61746L19.6869 8.82864ZM12.6448 13.2736L5.13581 8.82864L4.66887 9.61746L12.1779 14.0624L12.6448 13.2736ZM5.1358 9.61747L12.6448 5.1729L12.1779 4.38406L4.66888 8.82863L5.1358 9.61747ZM12.1779 5.1729L19.6869 9.61747L20.1538 8.82863L12.6448 4.38406L12.1779 5.1729ZM4.47634 9.95936L11.9854 14.4039L12.4523 13.6151L4.94326 9.17052L4.47634 9.95936ZM11.7605 14.0095V22.899H12.6772V14.0095H11.7605ZM12.4523 22.5046L4.94327 18.0597L4.47633 18.8485L11.9853 23.2935L12.4523 22.5046ZM5.16813 18.4541V9.56494H4.25147V18.4541H5.16813ZM13.0622 22.899V14.0095H12.1456V22.899H13.0622ZM12.8374 14.4039L20.3464 9.95936L19.8795 9.17052L12.3704 13.6151L12.8374 14.4039ZM19.6546 9.56494V18.4545H20.5712V9.56494H19.6546ZM19.8795 18.0601L12.3704 22.5046L12.8374 23.2935L20.3464 18.8489L19.8795 18.0601Z" fill="white"/>
<path d="M20.5565 12.4005L15.3463 15.8196L14.6951 22.658L20.5565 26.0771L26.4179 22.658L25.7666 15.8196L20.5565 12.4005Z" fill="#EF1515"/>
<path d="M14.8397 15.8282V23.0611L20.7575 26.6775L26.6753 23.0611V15.8282L20.7575 12.2118L14.8397 15.8282ZM26.2526 15.9144L20.7575 19.2727L15.2624 15.9144L20.7575 12.5563L26.2526 15.9144ZM15.1215 16.1727L20.6166 19.5307V26.2471L15.1215 22.8887V16.1727ZM20.8984 26.2471V19.5307L26.3935 16.1727V22.889L20.8984 26.2471Z" fill="#EF1515"/>
<path d="M14.8397 15.8282L14.6007 15.4371L14.3814 15.5711V15.8282H14.8397ZM14.8397 23.0611H14.3814V23.3182L14.6007 23.4522L14.8397 23.0611ZM20.7575 26.6775L20.5185 27.0686L20.7575 27.2146L20.9965 27.0686L20.7575 26.6775ZM26.6753 23.0611L26.9143 23.4522L27.1336 23.3182V23.0611H26.6753ZM26.6753 15.8282H27.1336V15.5711L26.9143 15.4371L26.6753 15.8282ZM20.7575 12.2118L20.9965 11.8207L20.7575 11.6747L20.5185 11.8207L20.7575 12.2118ZM26.2526 15.9144L26.4916 16.3054L27.1315 15.9143L26.4916 15.5233L26.2526 15.9144ZM20.7575 19.2727L20.5185 19.6638L20.7575 19.8098L20.9965 19.6638L20.7575 19.2727ZM15.2624 15.9144L15.0234 15.5233L14.3835 15.9143L15.0234 16.3054L15.2624 15.9144ZM20.7575 12.5563L20.9965 12.1652L20.7575 12.0192L20.5185 12.1652L20.7575 12.5563ZM15.1215 16.1727L15.3605 15.7816L14.6632 15.3554V16.1727H15.1215ZM20.6166 19.5307H21.0749V19.2737L20.8556 19.1396L20.6166 19.5307ZM20.6166 26.2471L20.3776 26.6382L21.0749 27.0643V26.2471H20.6166ZM15.1215 22.8887H14.6632V23.1458L14.8825 23.2798L15.1215 22.8887ZM20.8984 26.2471H20.4401V27.0643L21.1374 26.6382L20.8984 26.2471ZM20.8984 19.5307L20.6594 19.1396L20.4401 19.2737V19.5307H20.8984ZM26.3935 16.1727H26.8518V15.3554L26.1545 15.7816L26.3935 16.1727ZM26.3935 22.889L26.6325 23.2801L26.8518 23.1461V22.889H26.3935ZM14.3814 15.8282V23.0611H15.298V15.8282H14.3814ZM14.6007 23.4522L20.5185 27.0686L20.9965 26.2864L15.0787 22.6701L14.6007 23.4522ZM20.9965 27.0686L26.9143 23.4522L26.4363 22.6701L20.5185 26.2864L20.9965 27.0686ZM27.1336 23.0611V15.8282H26.2169V23.0611H27.1336ZM26.9143 15.4371L20.9965 11.8207L20.5185 12.6029L26.4363 16.2192L26.9143 15.4371ZM20.5185 11.8207L14.6007 15.4371L15.0787 16.2192L20.9965 12.6029L20.5185 11.8207ZM26.0136 15.5233L20.5185 18.8816L20.9965 19.6638L26.4916 16.3054L26.0136 15.5233ZM20.9965 18.8816L15.5014 15.5233L15.0234 16.3054L20.5185 19.6638L20.9965 18.8816ZM15.5014 16.3054L20.9965 12.9474L20.5185 12.1652L15.0234 15.5233L15.5014 16.3054ZM20.5185 12.9474L26.0136 16.3054L26.4916 15.5233L20.9965 12.1652L20.5185 12.9474ZM14.8825 16.5638L20.3776 19.9218L20.8556 19.1396L15.3605 15.7816L14.8825 16.5638ZM20.1583 19.5307V26.2471H21.0749V19.5307H20.1583ZM20.8556 25.856L15.3605 22.4977L14.8825 23.2798L20.3776 26.6382L20.8556 25.856ZM15.5798 22.8887V16.1727H14.6632V22.8887H15.5798ZM21.3567 26.2471V19.5307H20.4401V26.2471H21.3567ZM21.1374 19.9218L26.6325 16.5638L26.1545 15.7816L20.6594 19.1396L21.1374 19.9218ZM25.9351 16.1727V22.889H26.8518V16.1727H25.9351ZM26.1545 22.498L20.6594 25.856L21.1374 26.6382L26.6325 23.2801L26.1545 22.498Z" fill="white"/>
</svg>
