<svg width="151" height="20" viewBox="0 0 151 20" fill="none" xmlns="http://www.w3.org/2000/svg">
<g clip-path="url(#clip0_1_1130)">
<path d="M64.7513 12.9872H74.6474L69.4201 4.54561L59.8097 19.7924H55.4396L67.1279 1.50016C67.3827 1.13514 67.7213 0.836504 68.1152 0.629263C68.5092 0.422021 68.9471 0.312211 69.3922 0.309031C69.8374 0.305851 70.2768 0.409395 70.6737 0.610988C71.0706 0.812581 71.4134 1.10635 71.6734 1.46769L83.3941 19.7924H79.024L76.9656 16.3833H66.9526L64.7708 12.9872M110.18 16.3833V0.493663H106.466V17.9482C106.465 18.1908 106.513 18.4309 106.608 18.6542C106.703 18.8774 106.842 19.0791 107.018 19.2469C107.193 19.4268 107.403 19.5695 107.635 19.6665C107.867 19.7636 108.117 19.813 108.368 19.8118H125.251L127.453 16.4028H110.16M48.7708 13.5456C50.5016 13.5456 52.1615 12.8581 53.3853 11.6342C54.6092 10.4103 55.2967 8.75043 55.2967 7.01964C55.2967 5.28884 54.6092 3.62893 53.3853 2.40508C52.1615 1.18122 50.5016 0.493663 48.7708 0.493663H32.537V19.7924H36.2448V3.90925H48.5435C49.3719 3.90925 50.1663 4.23832 50.752 4.82406C51.3378 5.40981 51.6669 6.20425 51.6669 7.03262C51.6669 7.861 51.3378 8.65544 50.752 9.24119C50.1663 9.82693 49.3719 10.156 48.5435 10.156H38.0825L49.1604 19.7924H54.5435L47.1019 13.5456H48.7708ZM9.7318 19.7924H20.9461C23.4611 19.7271 25.8511 18.6822 27.6068 16.8803C29.3626 15.0784 30.3451 12.6621 30.3451 10.1463C30.3451 7.63044 29.3626 5.21409 27.6068 3.41221C25.8511 1.61033 23.4611 0.565415 20.9461 0.500157H9.7318C8.444 0.466741 7.16254 0.691531 5.963 1.16127C4.76345 1.63101 3.67012 2.33618 2.74746 3.23521C1.8248 4.13424 1.0915 5.20892 0.590802 6.39587C0.090107 7.58283 -0.167847 8.85802 -0.167847 10.1463C-0.167847 11.4345 0.090107 12.7097 0.590802 13.8966C1.0915 15.0836 1.8248 16.1583 2.74746 17.0573C3.67012 17.9563 4.76345 18.6615 5.963 19.1313C7.16254 19.601 8.444 19.8258 9.7318 19.7924ZM20.6928 16.3963H9.97855C8.35752 16.344 6.82038 15.6633 5.69218 14.4981C4.56397 13.3329 3.93318 11.7746 3.93318 10.1528C3.93318 8.53088 4.56397 6.97259 5.69218 5.80741C6.82038 4.64224 8.35752 3.96153 9.97855 3.90925H20.6928C21.5297 3.88226 22.3634 4.02377 23.1445 4.32539C23.9256 4.62701 24.638 5.08257 25.2396 5.665C25.8411 6.24743 26.3194 6.94484 26.646 7.71578C26.9726 8.48673 27.141 9.31547 27.141 10.1528C27.141 10.99 26.9726 11.8188 26.646 12.5897C26.3194 13.3607 25.8411 14.0581 25.2396 14.6405C24.638 15.2229 23.9256 15.6785 23.1445 15.9801C22.3634 16.2817 21.5297 16.4233 20.6928 16.3963ZM91.1409 19.7924H102.589L104.758 16.3963H91.3941C90.5573 16.4233 89.7235 16.2817 88.9425 15.9801C88.1614 15.6785 87.4489 15.2229 86.8474 14.6405C86.2459 14.0581 85.7676 13.3607 85.441 12.5897C85.1143 11.8188 84.946 10.99 84.946 10.1528C84.946 9.31547 85.1143 8.48673 85.441 7.71578C85.7676 6.94484 86.2459 6.24743 86.8474 5.665C87.4489 5.08257 88.1614 4.62701 88.9425 4.32539C89.7235 4.02377 90.5573 3.88226 91.3941 3.90925H102.271L104.466 0.500157H91.1409C89.8531 0.466741 88.5716 0.691531 87.3721 1.16127C86.1725 1.63101 85.0792 2.33618 84.1565 3.23521C83.2339 4.13424 82.5006 5.20892 81.9999 6.39587C81.4992 7.58283 81.2412 8.85802 81.2412 10.1463C81.2412 11.4345 81.4992 12.7097 81.9999 13.8966C82.5006 15.0836 83.2339 16.1583 84.1565 17.0573C85.0792 17.9563 86.1725 18.6615 87.3721 19.1313C88.5716 19.601 89.8531 19.8258 91.1409 19.7924ZM136.511 16.3963C135.15 16.3968 133.827 15.9531 132.742 15.1327C131.656 14.3122 130.869 13.1599 130.498 11.8508H146.355L148.537 8.44821H130.498C130.868 7.13857 131.655 5.98563 132.741 5.16503C133.826 4.34443 135.15 3.90117 136.511 3.90275H147.394L149.569 0.493663H136.258C133.743 0.558922 131.353 1.60384 129.597 3.40572C127.841 5.2076 126.859 7.62394 126.859 10.1398C126.859 12.6556 127.841 15.0719 129.597 16.8738C131.353 18.6757 133.743 19.7206 136.258 19.7859H147.706L149.881 16.3898H136.505" fill="#C74634"/>
</g>
<defs>
<clipPath id="clip0_1_1130">
<rect width="150" height="19.4805" fill="white" transform="translate(0.0821533 0.311768)"/>
</clipPath>
</defs>
</svg>
