<svg width="256" height="45" viewBox="0 0 256 45" fill="none" xmlns="http://www.w3.org/2000/svg">
<rect x="0.5" y="7.5" width="30" height="30" rx="5" fill="#EF1515"/>
<path d="M4.32472 16.109V25.6823L12.4114 30.4687L20.498 25.6823V16.109L12.4114 11.3225L4.32472 16.109ZM19.9204 16.223L12.4114 20.668L4.90234 16.223L12.4114 11.7785L19.9204 16.223ZM4.7098 16.5649L12.2188 21.0095V29.899L4.7098 25.4541V16.5649ZM12.6039 29.899V21.0095L20.1129 16.5649V25.4545L12.6039 29.899Z" fill="#EF1515"/>
<path d="M4.32472 16.109L4.09127 15.7145L3.86639 15.8476V16.109H4.32472ZM4.32472 25.6823H3.86639V25.9436L4.09127 26.0767L4.32472 25.6823ZM12.4114 30.4687L12.1779 30.8631L12.4114 31.0013L12.6448 30.8631L12.4114 30.4687ZM20.498 25.6823L20.7314 26.0767L20.9563 25.9436V25.6823H20.498ZM20.498 16.109H20.9563V15.8476L20.7314 15.7145L20.498 16.109ZM12.4114 11.3225L12.6448 10.9281L12.4114 10.7899L12.1779 10.9281L12.4114 11.3225ZM19.9204 16.223L20.1538 16.6175L20.8202 16.223L20.1538 15.8286L19.9204 16.223ZM12.4114 20.668L12.1779 21.0624L12.4114 21.2006L12.6448 21.0624L12.4114 20.668ZM4.90234 16.223L4.66888 15.8286L4.00255 16.223L4.66887 16.6175L4.90234 16.223ZM12.4114 11.7785L12.6448 11.3841L12.4114 11.2459L12.1779 11.3841L12.4114 11.7785ZM4.7098 16.5649L4.94326 16.1705L4.25147 15.761V16.5649H4.7098ZM12.2188 21.0095H12.6772V20.7482L12.4523 20.6151L12.2188 21.0095ZM12.2188 29.899L11.9853 30.2935L12.6772 30.703V29.899H12.2188ZM4.7098 25.4541H4.25147V25.7154L4.47633 25.8485L4.7098 25.4541ZM12.6039 29.899H12.1456V30.7029L12.8374 30.2935L12.6039 29.899ZM12.6039 21.0095L12.3704 20.6151L12.1456 20.7482V21.0095H12.6039ZM20.1129 16.5649H20.5712V15.761L19.8795 16.1705L20.1129 16.5649ZM20.1129 25.4545L20.3464 25.8489L20.5712 25.7158V25.4545H20.1129ZM3.86639 16.109V25.6823H4.78306V16.109H3.86639ZM4.09127 26.0767L12.1779 30.8631L12.6448 30.0743L4.55818 25.2878L4.09127 26.0767ZM12.6448 30.8631L20.7314 26.0767L20.2645 25.2878L12.1779 30.0743L12.6448 30.8631ZM20.9563 25.6823V16.109H20.0397V25.6823H20.9563ZM20.7314 15.7145L12.6448 10.9281L12.1779 11.7169L20.2645 16.5034L20.7314 15.7145ZM12.1779 10.9281L4.09127 15.7145L4.55818 16.5034L12.6448 11.7169L12.1779 10.9281ZM19.6869 15.8286L12.1779 20.2736L12.6448 21.0624L20.1538 16.6175L19.6869 15.8286ZM12.6448 20.2736L5.13581 15.8286L4.66887 16.6175L12.1779 21.0624L12.6448 20.2736ZM5.1358 16.6175L12.6448 12.1729L12.1779 11.3841L4.66888 15.8286L5.1358 16.6175ZM12.1779 12.1729L19.6869 16.6175L20.1538 15.8286L12.6448 11.3841L12.1779 12.1729ZM4.47634 16.9594L11.9854 21.4039L12.4523 20.6151L4.94326 16.1705L4.47634 16.9594ZM11.7605 21.0095V29.899H12.6772V21.0095H11.7605ZM12.4523 29.5046L4.94327 25.0597L4.47633 25.8485L11.9853 30.2935L12.4523 29.5046ZM5.16813 25.4541V16.5649H4.25147V25.4541H5.16813ZM13.0622 29.899V21.0095H12.1456V29.899H13.0622ZM12.8374 21.4039L20.3464 16.9594L19.8795 16.1705L12.3704 20.6151L12.8374 21.4039ZM19.6546 16.5649V25.4545H20.5712V16.5649H19.6546ZM19.8795 25.0601L12.3704 29.5046L12.8374 30.2935L20.3464 25.8489L19.8795 25.0601Z" fill="white"/>
<path d="M20.5565 19.4005L15.3463 22.8196L14.6951 29.658L20.5565 33.0771L26.4179 29.658L25.7666 22.8196L20.5565 19.4005Z" fill="#EF1515"/>
<path d="M14.8397 22.8282V30.0611L20.7575 33.6775L26.6753 30.0611V22.8282L20.7575 19.2118L14.8397 22.8282ZM26.2526 22.9144L20.7575 26.2727L15.2624 22.9144L20.7575 19.5563L26.2526 22.9144ZM15.1215 23.1727L20.6166 26.5307V33.2471L15.1215 29.8887V23.1727ZM20.8984 33.2471V26.5307L26.3935 23.1727V29.889L20.8984 33.2471Z" fill="#EF1515"/>
<path d="M14.8397 22.8282L14.6007 22.4371L14.3814 22.5711V22.8282H14.8397ZM14.8397 30.0611H14.3814V30.3182L14.6007 30.4522L14.8397 30.0611ZM20.7575 33.6775L20.5185 34.0686L20.7575 34.2146L20.9965 34.0686L20.7575 33.6775ZM26.6753 30.0611L26.9143 30.4522L27.1336 30.3182V30.0611H26.6753ZM26.6753 22.8282H27.1336V22.5711L26.9143 22.4371L26.6753 22.8282ZM20.7575 19.2118L20.9965 18.8207L20.7575 18.6747L20.5185 18.8207L20.7575 19.2118ZM26.2526 22.9144L26.4916 23.3054L27.1315 22.9143L26.4916 22.5233L26.2526 22.9144ZM20.7575 26.2727L20.5185 26.6638L20.7575 26.8098L20.9965 26.6638L20.7575 26.2727ZM15.2624 22.9144L15.0234 22.5233L14.3835 22.9143L15.0234 23.3054L15.2624 22.9144ZM20.7575 19.5563L20.9965 19.1652L20.7575 19.0192L20.5185 19.1652L20.7575 19.5563ZM15.1215 23.1727L15.3605 22.7816L14.6632 22.3554V23.1727H15.1215ZM20.6166 26.5307H21.0749V26.2737L20.8556 26.1396L20.6166 26.5307ZM20.6166 33.2471L20.3776 33.6382L21.0749 34.0643V33.2471H20.6166ZM15.1215 29.8887H14.6632V30.1458L14.8825 30.2798L15.1215 29.8887ZM20.8984 33.2471H20.4401V34.0643L21.1374 33.6382L20.8984 33.2471ZM20.8984 26.5307L20.6594 26.1396L20.4401 26.2737V26.5307H20.8984ZM26.3935 23.1727H26.8518V22.3554L26.1545 22.7816L26.3935 23.1727ZM26.3935 29.889L26.6325 30.2801L26.8518 30.1461V29.889H26.3935ZM14.3814 22.8282V30.0611H15.298V22.8282H14.3814ZM14.6007 30.4522L20.5185 34.0686L20.9965 33.2864L15.0787 29.6701L14.6007 30.4522ZM20.9965 34.0686L26.9143 30.4522L26.4363 29.6701L20.5185 33.2864L20.9965 34.0686ZM27.1336 30.0611V22.8282H26.2169V30.0611H27.1336ZM26.9143 22.4371L20.9965 18.8207L20.5185 19.6029L26.4363 23.2192L26.9143 22.4371ZM20.5185 18.8207L14.6007 22.4371L15.0787 23.2192L20.9965 19.6029L20.5185 18.8207ZM26.0136 22.5233L20.5185 25.8816L20.9965 26.6638L26.4916 23.3054L26.0136 22.5233ZM20.9965 25.8816L15.5014 22.5233L15.0234 23.3054L20.5185 26.6638L20.9965 25.8816ZM15.5014 23.3054L20.9965 19.9474L20.5185 19.1652L15.0234 22.5233L15.5014 23.3054ZM20.5185 19.9474L26.0136 23.3054L26.4916 22.5233L20.9965 19.1652L20.5185 19.9474ZM14.8825 23.5638L20.3776 26.9218L20.8556 26.1396L15.3605 22.7816L14.8825 23.5638ZM20.1583 26.5307V33.2471H21.0749V26.5307H20.1583ZM20.8556 32.856L15.3605 29.4977L14.8825 30.2798L20.3776 33.6382L20.8556 32.856ZM15.5798 29.8887V23.1727H14.6632V29.8887H15.5798ZM21.3567 33.2471V26.5307H20.4401V33.2471H21.3567ZM21.1374 26.9218L26.6325 23.5638L26.1545 22.7816L20.6594 26.1396L21.1374 26.9218ZM25.9351 23.1727V29.889H26.8518V23.1727H25.9351ZM26.1545 29.498L20.6594 32.856L21.1374 33.6382L26.6325 30.2801L26.1545 29.498Z" fill="white"/>
<g clip-path="url(#clip0_1_665)">
<path d="M58.9638 18.029C58.9638 22.9014 55.5895 25.8241 49.865 25.8241H44.4206V35.046H40.5547V10.3374H49.865C55.5934 10.3374 58.9638 13.2256 58.9638 18.029ZM49.7573 22.3441C53.2002 22.3441 54.9569 20.8828 54.9569 18.029C54.9569 15.1753 53.2002 13.8193 49.7573 13.8193H44.4167V22.3441H49.7573Z" fill="#EF1515"/>
<path d="M81.4652 35.6186C76.3694 35.6186 72.6719 31.9049 72.6719 26.7912C72.6719 21.6775 76.3694 17.9983 81.4652 17.9983C86.561 17.9983 90.2976 21.6966 90.2976 26.7912C90.2976 31.8857 86.5845 35.6186 81.4652 35.6186ZM81.4652 21.1029C77.8813 21.1029 76.2499 24.0524 76.2499 26.7912C76.2499 30.7462 78.9525 32.5503 81.4652 32.5503C85.0491 32.5503 86.6804 29.5645 86.6804 26.7912C86.6804 22.863 84.062 21.1029 81.4652 21.1029Z" fill="#EF1515"/>
<path d="M99.8556 35.6147C94.4543 35.6147 92.1962 32.6863 91.8672 30.1333L95.5353 30.1256C95.8349 31.5084 97.0942 32.9698 99.8164 32.9698C102.09 32.9698 103.105 31.8302 103.105 30.7002C103.105 30.0529 102.77 28.9075 100.531 28.5073L97.6269 27.9442C94.4817 27.339 92.6016 25.575 92.6016 23.2307C92.6016 20.3445 95.692 17.9983 99.4913 17.9983C101.818 17.9983 103.667 18.5633 104.992 19.676C106.107 20.6164 106.808 22.0452 106.947 23.1158L103.391 23.1043C103.044 21.8441 101.871 20.6107 99.4913 20.6107C97.715 20.6107 96.3226 21.6085 96.3226 22.8803C96.3226 23.926 97.1862 24.7266 98.5748 24.9679L101.563 25.4965C104.981 26.1438 106.943 27.9403 106.943 30.4187C106.943 32.897 104.507 35.6167 99.8536 35.6167H99.8556V35.6147Z" fill="#EF1515"/>
<path d="M109.684 40.7895V18.3888H113.134V21.5527L113.704 20.576C114.619 19.0093 116.722 17.998 119.06 17.998C123.831 17.998 126.918 21.4129 126.918 26.7009C126.918 31.9889 123.628 35.4766 118.918 35.4766C116.291 35.4766 114.554 34.3198 113.802 33.2338L113.244 32.4256V40.7857H109.684V40.7914V40.7895ZM118.263 21.0529C115.285 21.0529 113.207 23.3761 113.207 26.7028C113.207 30.0296 115.287 32.4256 118.263 32.4256C121.24 32.4256 123.32 30.1273 123.32 26.7028C123.32 23.2784 121.287 21.0529 118.263 21.0529Z" fill="#EF1515"/>
<path d="M137.713 35.6186C135.394 35.6186 133.248 34.7893 131.677 33.2858C129.975 31.6578 129.074 29.3883 129.074 26.7203C129.074 24.2535 129.965 22.005 131.587 20.3847C133.101 18.8678 135.177 17.9983 137.282 17.9983C142.444 17.9983 145.525 21.2197 145.525 26.615C145.525 27.0421 145.496 27.4079 145.47 27.6205H132.625L132.637 27.9308C132.75 30.6447 134.932 32.6902 137.715 32.6902C139.953 32.6902 141.353 31.6808 142.109 29.7675L145.243 29.7751C144.456 33.1977 141.963 35.6186 137.715 35.6186H137.713ZM137.317 20.8214C134.556 20.8214 132.899 22.9243 132.742 24.9008L132.717 25.2226H141.939L141.927 24.9162C141.861 23.0296 140.613 20.8252 137.317 20.8252V20.8214Z" fill="#EF1515"/>
<path d="M156.571 35.6183C151.418 35.6183 147.68 31.9047 147.68 26.7909C147.68 21.6772 151.418 17.998 156.571 17.998C161.723 17.998 165.501 21.6964 165.501 26.7909C165.501 31.8855 161.747 35.6183 156.571 35.6183ZM156.571 21.1027C152.946 21.1027 151.299 24.0521 151.299 26.7909C151.299 30.7459 154.031 32.5501 156.571 32.5501C160.196 32.5501 161.845 29.5642 161.845 26.7909C161.845 22.8628 159.197 21.1027 156.571 21.1027Z" fill="#EF1515"/>
<path d="M71.8879 18.3813V21.8135H65.1314V35.2355H61.3125V18.3813H71.8879Z" fill="#EF1515"/>
</g>
<defs>
<clipPath id="clip0_1_665">
<rect width="125" height="45" fill="white" transform="translate(40.5)"/>
</clipPath>
</defs>
</svg>
