<svg width="20" height="21" viewBox="0 0 20 21" fill="none" xmlns="http://www.w3.org/2000/svg">
<mask id="path-1-outside-1_1_737" maskUnits="userSpaceOnUse" x="0.24115" y="0.906128" width="20" height="20" fill="black">
<rect fill="white" x="0.24115" y="0.906128" width="20" height="20"/>
<path fill-rule="evenodd" clip-rule="evenodd" d="M19.2924 4.22242C17.5272 4.51853 17.2872 4.76032 16.9933 6.53871C16.6994 4.76032 16.4594 4.51853 14.6943 4.22242C16.4594 3.92631 16.6994 3.68452 16.9933 1.90613C17.2872 3.68452 17.5272 3.92631 19.2924 4.22242ZM8.12599 16.7751C5.48246 17.2197 5.1249 17.58 4.68357 20.2433C4.24223 17.58 3.88468 17.2197 1.24115 16.7751C3.88468 16.3305 4.24223 15.9702 4.68357 13.3069C5.1249 15.9702 5.48246 16.3305 8.12599 16.7751ZM10.6928 17.8947C11.6783 11.9829 12.4786 11.1837 18.3904 10.197H18.3892C12.4774 9.21152 11.6783 8.41118 10.6915 2.49939C9.70604 8.41118 8.9057 9.21152 2.99513 10.197C8.90692 11.1825 9.70604 11.9829 10.6928 17.8947Z"/>
</mask>
<path fill-rule="evenodd" clip-rule="evenodd" d="M19.2924 4.22242C17.5272 4.51853 17.2872 4.76032 16.9933 6.53871C16.6994 4.76032 16.4594 4.51853 14.6943 4.22242C16.4594 3.92631 16.6994 3.68452 16.9933 1.90613C17.2872 3.68452 17.5272 3.92631 19.2924 4.22242ZM8.12599 16.7751C5.48246 17.2197 5.1249 17.58 4.68357 20.2433C4.24223 17.58 3.88468 17.2197 1.24115 16.7751C3.88468 16.3305 4.24223 15.9702 4.68357 13.3069C5.1249 15.9702 5.48246 16.3305 8.12599 16.7751ZM10.6928 17.8947C11.6783 11.9829 12.4786 11.1837 18.3904 10.197H18.3892C12.4774 9.21152 11.6783 8.41118 10.6915 2.49939C9.70604 8.41118 8.9057 9.21152 2.99513 10.197C8.90692 11.1825 9.70604 11.9829 10.6928 17.8947Z" fill="white"/>
<path d="M16.9933 6.53871L16.5675 6.60908C16.602 6.81744 16.7821 6.97027 16.9933 6.97027C17.2045 6.97027 17.3847 6.81744 17.4191 6.60908L16.9933 6.53871ZM19.2924 4.22242L19.3638 4.64803C19.5717 4.61316 19.7239 4.43321 19.7239 4.22242C19.7239 4.01163 19.5717 3.83168 19.3638 3.7968L19.2924 4.22242ZM14.6943 4.22242L14.6229 3.7968C14.415 3.83168 14.2627 4.01163 14.2627 4.22242C14.2627 4.43321 14.415 4.61316 14.6229 4.64803L14.6943 4.22242ZM16.9933 1.90613L17.4191 1.83576C17.3847 1.6274 17.2045 1.47457 16.9933 1.47457C16.7821 1.47457 16.602 1.6274 16.5675 1.83576L16.9933 1.90613ZM4.68357 20.2433L4.25781 20.3139C4.29233 20.5222 4.47245 20.6749 4.68357 20.6749C4.89469 20.6749 5.07481 20.5222 5.10932 20.3139L4.68357 20.2433ZM8.12599 16.7751L8.19757 17.2007C8.40537 17.1657 8.55755 16.9858 8.55755 16.7751C8.55755 16.5644 8.40537 16.3845 8.19757 16.3495L8.12599 16.7751ZM1.24115 16.7751L1.16957 16.3495C0.961764 16.3845 0.809588 16.5644 0.809588 16.7751C0.809588 16.9858 0.961764 17.1657 1.16957 17.2007L1.24115 16.7751ZM4.68357 13.3069L5.10932 13.2363C5.07481 13.028 4.89469 12.8753 4.68357 12.8753C4.47245 12.8753 4.29233 13.028 4.25781 13.2363L4.68357 13.3069ZM18.3904 10.197L18.4614 10.6227C18.6829 10.5857 18.839 10.3851 18.8205 10.1614C18.8019 9.93762 18.6149 9.76546 18.3904 9.76546V10.197ZM10.6928 17.8947L10.2671 17.9657C10.3018 18.1738 10.4819 18.3262 10.6928 18.3262C10.9037 18.3262 11.0838 18.1737 11.1185 17.9656L10.6928 17.8947ZM18.3892 10.197L18.3182 10.6227C18.3417 10.6266 18.3654 10.6286 18.3892 10.6286V10.197ZM10.6915 2.49939L11.1172 2.42834C11.0825 2.22027 10.9024 2.0678 10.6915 2.06782C10.4806 2.06785 10.3005 2.22035 10.2659 2.42842L10.6915 2.49939ZM2.99513 10.197L2.92415 9.77133C2.71607 9.80603 2.56357 9.98607 2.56357 10.197C2.56357 10.408 2.71608 10.588 2.92417 10.6227L2.99513 10.197ZM17.4191 6.60908C17.5703 5.69443 17.6927 5.33495 17.8974 5.12873C18.1013 4.92331 18.4562 4.80028 19.3638 4.64803L19.221 3.7968C18.3634 3.94066 17.7157 4.08658 17.2848 4.52069C16.8548 4.95399 16.7103 5.60459 16.5675 6.46834L17.4191 6.60908ZM14.6229 4.64803C15.5305 4.80028 15.8853 4.92331 16.0892 5.12873C16.2939 5.33495 16.4164 5.69443 16.5675 6.60908L17.4191 6.46834C17.2764 5.60459 17.1319 4.95399 16.7018 4.52069C16.2709 4.08658 15.6232 3.94066 14.7657 3.7968L14.6229 4.64803ZM16.5675 1.83576C16.4164 2.7504 16.2939 3.10989 16.0892 3.31611C15.8853 3.52152 15.5305 3.64455 14.6229 3.7968L14.7657 4.64803C15.6232 4.50418 16.2709 4.35826 16.7018 3.92415C17.1319 3.49085 17.2764 2.84025 17.4191 1.97649L16.5675 1.83576ZM19.3638 3.7968C18.4562 3.64455 18.1013 3.52152 17.8974 3.31611C17.6927 3.10989 17.5703 2.7504 17.4191 1.83576L16.5675 1.9765C16.7103 2.84025 16.8548 3.49085 17.2848 3.92415C17.7157 4.35826 18.3634 4.50418 19.221 4.64803L19.3638 3.7968ZM5.10932 20.3139C5.33424 18.9566 5.52292 18.3463 5.88525 17.9812C6.24679 17.617 6.85061 17.4272 8.19757 17.2007L8.0544 16.3495C6.75784 16.5676 5.86112 16.7803 5.27266 17.3732C4.685 17.9652 4.47423 18.8667 4.25781 20.1728L5.10932 20.3139ZM1.16957 17.2007C2.51653 17.4272 3.12035 17.617 3.48188 17.9812C3.84422 18.3463 4.0329 18.9566 4.25781 20.3139L5.10932 20.1728C4.8929 18.8667 4.68213 17.9652 4.09448 17.3732C3.50602 16.7803 2.6093 16.5676 1.31273 16.3495L1.16957 17.2007ZM4.25781 13.2363C4.0329 14.5936 3.84422 15.2039 3.48188 15.569C3.12035 15.9332 2.51653 16.123 1.16957 16.3495L1.31273 17.2007C2.6093 16.9826 3.50602 16.7699 4.09448 16.177C4.68213 15.585 4.8929 14.6835 5.10932 13.3774L4.25781 13.2363ZM8.19757 16.3495C6.85061 16.123 6.24679 15.9332 5.88525 15.569C5.52292 15.2039 5.33424 14.5936 5.10932 13.2363L4.25781 13.3774C4.47423 14.6835 4.685 15.585 5.27266 16.177C5.86112 16.7699 6.75784 16.9826 8.0544 17.2007L8.19757 16.3495ZM18.3193 9.77135C15.3889 10.2605 13.5648 10.7182 12.3891 11.8938C11.2133 13.0694 10.7556 14.8932 10.2671 17.8237L11.1185 17.9656C11.6154 14.9843 12.0507 13.4527 12.9994 12.5041C13.9481 11.5555 15.4801 11.1203 18.4614 10.6227L18.3193 9.77135ZM18.3892 10.6286H18.3904V9.76546H18.3892V10.6286ZM10.2659 2.57043C10.755 5.50088 11.2127 7.32495 12.3883 8.5007C13.5639 9.67649 15.3877 10.1342 18.3182 10.6227L18.4601 9.77133C15.4789 9.27435 13.9472 8.83912 12.9986 7.89042C12.05 6.94168 11.6148 5.40968 11.1172 2.42834L10.2659 2.57043ZM3.06611 10.6227C5.99601 10.1342 7.8198 9.67649 8.99542 8.5007C10.171 7.32493 10.6287 5.50085 11.1172 2.57035L10.2659 2.42842C9.76887 5.40972 9.33365 6.9417 8.38506 7.89042C7.43649 8.83913 5.90483 9.27435 2.92415 9.77133L3.06611 10.6227ZM11.1184 17.8236C10.6293 14.8932 10.1716 13.0691 8.99603 11.8933C7.82041 10.7175 5.9966 10.2598 3.06609 9.77133L2.92417 10.6227C5.90546 11.1197 7.4371 11.5549 8.38567 12.5036C9.33428 13.4524 9.76948 14.9844 10.2671 17.9657L11.1184 17.8236Z" fill="url(#paint0_linear_1_737)" fill-opacity="0.6" style="mix-blend-mode:overlay" mask="url(#path-1-outside-1_1_737)"/>
<mask id="mask0_1_737" style="mask-type:alpha" maskUnits="userSpaceOnUse" x="1" y="1" width="19" height="20">
<path fill-rule="evenodd" clip-rule="evenodd" d="M19.2924 4.22242C17.5272 4.51853 17.2872 4.76032 16.9933 6.53871C16.6994 4.76032 16.4594 4.51853 14.6943 4.22242C16.4594 3.92631 16.6994 3.68452 16.9933 1.90613C17.2872 3.68452 17.5272 3.92631 19.2924 4.22242ZM8.12599 16.7752C5.48246 17.2198 5.1249 17.5801 4.68357 20.2434C4.24223 17.5801 3.88468 17.2198 1.24115 16.7752C3.88468 16.3305 4.24223 15.9703 4.68357 13.3069C5.1249 15.9703 5.48246 16.3305 8.12599 16.7752ZM10.6928 17.8947C11.6783 11.9829 12.4786 11.1837 18.3904 10.197H18.3892C12.4774 9.21152 11.6783 8.41118 10.6915 2.49939C9.70604 8.41118 8.9057 9.21152 2.99513 10.197C8.90692 11.1825 9.70604 11.9829 10.6928 17.8947Z" fill="#EE3838"/>
</mask>
<g mask="url(#mask0_1_737)">
<circle cx="19.2939" cy="18.9821" r="13.4863" fill="url(#paint1_linear_1_737)"/>
</g>
<defs>
<linearGradient id="paint0_linear_1_737" x1="10.2668" y1="1.90613" x2="6.30006" y2="21.2461" gradientUnits="userSpaceOnUse">
<stop stop-opacity="0.3"/>
<stop offset="1"/>
</linearGradient>
<linearGradient id="paint1_linear_1_737" x1="11.5239" y1="7.51819" x2="16.7191" y2="16.3568" gradientUnits="userSpaceOnUse">
<stop stop-color="#FFCDCD"/>
<stop offset="1" stop-color="white"/>
</linearGradient>
</defs>
</svg>
