<svg width="24" height="24" viewBox="0 0 24 24" fill="none" xmlns="http://www.w3.org/2000/svg">
<g clip-path="url(#clip0_1_719)">
<path d="M12 24C18.6274 24 24 18.6274 24 12C24 5.37258 18.6274 0 12 0C5.37258 0 0 5.37258 0 12C0 18.6274 5.37258 24 12 24Z" fill="#FF492C"/>
<path d="M17.1921 9.19213H15.1425C15.1977 8.87053 15.3969 8.69053 15.8001 8.48653L16.1769 8.29453C16.8513 7.94893 17.2113 7.55773 17.2113 6.91933C17.2113 6.51853 17.0553 6.20173 16.7457 5.97373C16.4361 5.74573 16.0713 5.63293 15.6441 5.63293C15.3136 5.62904 14.9892 5.72162 14.7105 5.89933C14.4297 6.07213 14.2209 6.29533 14.0913 6.57373L14.6841 7.16893C14.9145 6.70333 15.2481 6.47533 15.6873 6.47533C16.0593 6.47533 16.2873 6.66733 16.2873 6.93373C16.2873 7.15693 16.1769 7.34173 15.7497 7.55773L15.5073 7.67533C14.9817 7.94173 14.6169 8.24653 14.4057 8.59213C14.1945 8.93773 14.0913 9.37213 14.0913 9.89773V10.0417H17.1921V9.19213ZM16.9185 11.0209H13.5249L11.8281 13.9585H15.2217L16.9185 16.8985L18.6153 13.9585L16.9185 11.0209Z" fill="#FEFEFE"/>
<path d="M12.1224 15.9196C9.96242 15.9196 8.20322 14.1604 8.20322 12.0004C8.20322 9.84035 9.96242 8.08115 12.1224 8.08115L13.464 5.27555C13.0222 5.1877 12.5729 5.14349 12.1224 5.14355C8.33523 5.14355 5.26562 8.21316 5.26562 12.0004C5.26562 15.7876 8.33523 18.8572 12.1224 18.8572C13.5738 18.8599 14.988 18.3991 16.1592 17.542L14.676 14.9692C13.9664 15.5821 13.0601 15.9194 12.1224 15.9196Z" fill="#FEFEFE"/>
</g>
<defs>
<clipPath id="clip0_1_719">
<rect width="24" height="24" fill="white"/>
</clipPath>
</defs>
</svg>
